<svg width="32" height="40" viewBox="0 0 32 40" fill="none" xmlns="http://www.w3.org/2000/svg">
<path d="M32.001 20.9523C32.001 22.6355 30.6365 24 28.9533 24H27.5946C25.9114 24 24.5469 25.3645 24.5469 27.0477V29.4992C24.5469 31.1824 23.1824 32.5469 21.4992 32.5469H19.0487C17.3655 32.5469 16.001 33.9114 16.001 35.5946V36.9523C16.001 38.6355 14.6365 40 12.9533 40H11.0487C9.36547 40 8.00098 38.6355 8.00098 36.9523V35.0477C8.00098 33.3645 9.36547 32 11.0487 32H12.4074C14.0906 32 15.4551 30.6355 15.4551 28.9523V26.5028C15.4551 24.8196 16.8196 23.4551 18.5028 23.4551H20.9533C22.6365 23.4551 24.001 22.0906 24.001 20.4074V11.0477C24.001 9.3645 22.6365 8 20.9533 8H11.0477C9.3645 8 8 9.3645 8 11.0477V29.3166C8 30.9998 6.6355 32.3643 4.95231 32.3643H3.04769C1.3645 32.3643 0 30.9998 0 29.3166V11.0477C0 9.3645 1.3645 8 3.04769 8H4.77067C6.45386 8 7.81836 6.6355 7.81836 4.95231V3.04769C7.81836 1.3645 9.18285 0 10.866 0H21.134C22.8171 0 24.1816 1.3645 24.1816 3.04769V4.95231C24.1816 6.6355 25.5461 8 27.2293 8H28.9533C30.6365 8 32.001 9.3645 32.001 11.0477V20.9523Z" fill="url(#paint0_linear_3104_7379)"/>
<defs>
<linearGradient id="paint0_linear_3104_7379" x1="1.48679e-08" y1="7.5225" x2="27.6964" y2="36.9295" gradientUnits="userSpaceOnUse">
<stop stop-color="#EE4FFB"/>
<stop offset="0.447613" stop-color="#FDB5FD"/>
<stop offset="1" stop-color="#6F6BFF"/>
</linearGradient>
</defs>
</svg>
